# xmcd CD database file
# Generated: Mon Apr 29 23:04:46 2002 by KSCD
# 
# Track frame offsets:
#       150
#       18239
#       30129
#       50984
#       70277
#       87886
#       107168
#       134341
#       143660
#       166940
#       182735
#
# Disc length: 3066 seconds
#
# Revision: 1
# Processed by: cddbd v1.4PL0 Copyright (c) Steve Scherf et al.
# Submitted via: Kscd 1.3.3
#
DISCID=8e0bf80b
DTITLE=The Lash - Every Direction
DYEAR=1900
DGENRE=
TTITLE0=The Sidhe Set
TTITLE1=Let the Demons Go
TTITLE2=The Lucky One
TTITLE3=Bad Tattoo
TTITLE4=Cat's Imagination
TTITLE5=Irish Cajun Polka Queen
TTITLE6=Pagan Princess, The Schumker's Journey
TTITLE7=The Best Years
TTITLE8=The Wolves Cry
TTITLE9=Protection
TTITLE10=Wild Obsessions
EXTD=
EXTT0=
EXTT1=
EXTT2=
EXTT3=
EXTT4=
EXTT5=
EXTT6=
EXTT7=
EXTT8=
EXTT9=
EXTT10=
PLAYORDER=
